<?xml version="1.0" encoding="utf-8"?>
<!-- Generator: Adobe Illustrator 26.1.0, SVG Export Plug-In . SVG Version: 6.00 Build 0)  -->
<svg version="1.1" id="Ebene_1" xmlns="http://www.w3.org/2000/svg" xmlns:xlink="http://www.w3.org/1999/xlink" x="0px" y="0px"
	 viewBox="0 0 888 888" style="enable-background:new 0 0 888 888;" xml:space="preserve">
<style type="text/css">
	.st0{fill:#59FFE9;}
</style>
<g>
	<circle class="st0" cx="300.4" cy="60.4" r="12.4"/>
	<path class="st0" d="M612.4,72.7H624V96h-11.6c-7,0-12.4,5.4-12.4,12.4V120h-11.6c-7,0-12.4,5.4-12.4,12.4c0,7,5.4,12.4,12.4,12.4
		H600h0.7h11.6c7,0,12.4-5.4,12.4-12.4v-11.6h11.6c7,0,12.4-5.4,12.4-12.4V96.7V96V72.7V72V60.4c0-7-5.4-12.4-12.4-12.4h-11.6H624
		h-11.6c-7,0-12.4,5.4-12.4,12.4C600,67.4,605.4,72.7,612.4,72.7z"/>
	<path class="st0" d="M312,96v0.7v11.6c0,7,5.4,12.4,12.4,12.4c7,0,12.4-5.4,12.4-12.4V96.7H360h0.7h11.6c7,0,12.4-5.4,12.4-12.4
		c0-7-5.4-12.4-12.4-12.4h-11.6V60.4c0-7-5.4-12.4-12.4-12.4c-7,0-12.4,5.4-12.4,12.4V72h-11.6c-7,0-12.4,5.4-12.4,12.4V96z"/>
	<circle class="st0" cx="516.4" cy="84.4" r="12.4"/>
	<path class="st0" d="M252.4,120.7H264v11.6c0,7,5.4,12.4,12.4,12.4H288v11.6c0,7,5.4,12.4,12.4,12.4H312h0.7h11.6
		c7,0,12.4-5.4,12.4-12.4c0-7-5.4-12.4-12.4-12.4h-11.6v-11.6c0-7-5.4-12.4-12.4-12.4h-11.6V96.7V96V84.4c0-7-5.4-12.4-12.4-12.4
		h-11.6V60.4c0-7-5.4-12.4-12.4-12.4c-7,0-12.4,5.4-12.4,12.4V72v0.7V96v0.7v11.6C240,115.4,245.4,120.7,252.4,120.7z"/>
	<path class="st0" d="M420.4,120.7c7,0,12.4-5.4,12.4-12.4V96.7V96V84.4c0-7-5.4-12.4-12.4-12.4c-7,0-12.4,5.4-12.4,12.4V96v0.7
		v11.6C408,115.4,413.4,120.7,420.4,120.7z"/>
	<path class="st0" d="M468.4,120.7H480h0.7h11.6c7,0,12.4-5.4,12.4-12.4c0-7-5.4-12.4-12.4-12.4h-11.6V72.7h11.6
		c7,0,12.4-5.4,12.4-12.4c0-7-5.4-12.4-12.4-12.4h-11.6H480h-11.6c-7,0-12.4,5.4-12.4,12.4V72v0.7V96v0.7v11.6
		C456,115.4,461.4,120.7,468.4,120.7z"/>
	<path class="st0" d="M528,120h-11.6c-7,0-12.4,5.4-12.4,12.4c0,7,5.4,12.4,12.4,12.4H528v11.6c0,7,5.4,12.4,12.4,12.4H552v11.6
		c0,7,5.4,12.4,12.4,12.4H576V216h-11.6c-7,0-12.4,5.4-12.4,12.4c0,7,5.4,12.4,12.4,12.4H576V264v0.7V288v0.7v11.6
		c0,7,5.4,12.4,12.4,12.4c7,0,12.4-5.4,12.4-12.4v-11.6h11.6c7,0,12.4-5.4,12.4-12.4c0-7-5.4-12.4-12.4-12.4h-11.6v-23.3V240v-23.3
		V216v-23.3V192v-11.6c0-7-5.4-12.4-12.4-12.4h-11.6v-11.6c0-7-5.4-12.4-12.4-12.4h-11.6v-23.3h11.6c7,0,12.4-5.4,12.4-12.4V96.7
		h11.6c7,0,12.4-5.4,12.4-12.4c0-7-5.4-12.4-12.4-12.4h-11.6H576h-11.6c-7,0-12.4,5.4-12.4,12.4V96h-11.6c-7,0-12.4,5.4-12.4,12.4
		V120z"/>
	<path class="st0" d="M372.4,144.7c7,0,12.4-5.4,12.4-12.4c0-7-5.4-12.4-12.4-12.4h-11.6H360h-11.6c-7,0-12.4,5.4-12.4,12.4
		c0,7,5.4,12.4,12.4,12.4H360h0.7H372.4z"/>
	<path class="st0" d="M384,168v0.7V192v0.7v11.6c0,7,5.4,12.4,12.4,12.4c7,0,12.4-5.4,12.4-12.4v-11.6V192v-23.3H432h0.7H456v11.6
		c0,7,5.4,12.4,12.4,12.4H480V216h-11.6c-7,0-12.4,5.4-12.4,12.4c0,7,5.4,12.4,12.4,12.4H480v11.6c0,7,5.4,12.4,12.4,12.4
		c7,0,12.4-5.4,12.4-12.4v-11.6h11.6c7,0,12.4-5.4,12.4-12.4c0-7-5.4-12.4-12.4-12.4h-11.6v-23.3V192v-11.6c0-7-5.4-12.4-12.4-12.4
		h-11.6v-11.6c0-7-5.4-12.4-12.4-12.4h-11.6v-11.6c0-7-5.4-12.4-12.4-12.4c-7,0-12.4,5.4-12.4,12.4V144h-23.3H408h-11.6
		c-7,0-12.4,5.4-12.4,12.4V168z"/>
	<circle class="st0" cx="636.4" cy="156.4" r="12.4"/>
	<circle class="st0" cx="348.4" cy="204.4" r="12.4"/>
	<circle class="st0" cx="444.4" cy="204.4" r="12.4"/>
	<circle class="st0" cx="540.4" cy="204.4" r="12.4"/>
	<path class="st0" d="M624,216v0.7v11.6c0,7,5.4,12.4,12.4,12.4c7,0,12.4-5.4,12.4-12.4v-11.6V216v-11.6c0-7-5.4-12.4-12.4-12.4
		c-7,0-12.4,5.4-12.4,12.4V216z"/>
	<circle class="st0" cx="204.4" cy="252.4" r="12.4"/>
	<path class="st0" d="M252.4,264.7H264v11.6c0,7,5.4,12.4,12.4,12.4H288v11.6c0,7,5.4,12.4,12.4,12.4H312V336h-11.6
		c-7,0-12.4,5.4-12.4,12.4c0,7,5.4,12.4,12.4,12.4H312v11.6c0,7,5.4,12.4,12.4,12.4c7,0,12.4-5.4,12.4-12.4v-11.6H360v11.6
		c0,7,5.4,12.4,12.4,12.4H384h0.7h11.6c7,0,12.4-5.4,12.4-12.4v-11.6V360v-23.3V336v-11.6c0-7-5.4-12.4-12.4-12.4h-11.6v-11.6
		c0-7-5.4-12.4-12.4-12.4h-11.6v-23.3h11.6c7,0,12.4-5.4,12.4-12.4v-11.6V240v-11.6c0-7-5.4-12.4-12.4-12.4c-7,0-12.4,5.4-12.4,12.4
		V240h-23.3H336h-23.3v-23.3V216v-11.6c0-7-5.4-12.4-12.4-12.4c-7,0-12.4,5.4-12.4,12.4V216h-23.3v-23.3h11.6
		c7,0,12.4-5.4,12.4-12.4c0-7-5.4-12.4-12.4-12.4h-11.6H264h-11.6c-7,0-12.4,5.4-12.4,12.4V192v0.7V216v0.7V240v0.7v11.6
		C240,259.4,245.4,264.7,252.4,264.7z M336.7,336v-23.3H360V336H336.7z M336,264.7V288h-23.3v-23.3H336z"/>
	<circle class="st0" cx="444.4" cy="252.4" r="12.4"/>
	<path class="st0" d="M528,264v0.7V288v0.7V312h-11.6c-7,0-12.4,5.4-12.4,12.4c0,7,5.4,12.4,12.4,12.4H528v11.6
		c0,7,5.4,12.4,12.4,12.4H552h0.7H576h0.7h11.6c7,0,12.4-5.4,12.4-12.4c0-7-5.4-12.4-12.4-12.4h-11.6H576h-23.3v-23.3V312v-23.3V288
		v-23.3V264v-11.6c0-7-5.4-12.4-12.4-12.4c-7,0-12.4,5.4-12.4,12.4V264z"/>
	<path class="st0" d="M648,264v0.7v11.6c0,7,5.4,12.4,12.4,12.4H672v11.6c0,7,5.4,12.4,12.4,12.4H696h0.7h11.6
		c7,0,12.4-5.4,12.4-12.4c0-7-5.4-12.4-12.4-12.4h-11.6v-23.3h11.6c7,0,12.4-5.4,12.4-12.4c0-7-5.4-12.4-12.4-12.4h-11.6H696h-23.3
		H672h-11.6c-7,0-12.4,5.4-12.4,12.4V264z"/>
	<path class="st0" d="M828.4,240h-11.6H816h-23.3H792h-11.6c-7,0-12.4,5.4-12.4,12.4c0,7,5.4,12.4,12.4,12.4H792h0.7H816v11.6
		c0,7,5.4,12.4,12.4,12.4c7,0,12.4-5.4,12.4-12.4v-11.6V264v-11.6C840.7,245.4,835.4,240,828.4,240z"/>
	<circle class="st0" cx="60.4" cy="276.4" r="12.4"/>
	<circle class="st0" cx="396.4" cy="276.4" r="12.4"/>
	<path class="st0" d="M216,288h-23.3v-11.6c0-7-5.4-12.4-12.4-12.4h-11.6v-11.6c0-7-5.4-12.4-12.4-12.4h-11.6H144h-23.3H120h-11.6
		c-7,0-12.4,5.4-12.4,12.4V264v0.7v11.6c0,7,5.4,12.4,12.4,12.4c7,0,12.4-5.4,12.4-12.4v-11.6H144v11.6c0,7,5.4,12.4,12.4,12.4H168
		V312v0.7V336v0.7V360h-11.6c-7,0-12.4,5.4-12.4,12.4V384h-23.3H120H96.7H96H84.4c-7,0-12.4,5.4-12.4,12.4c0,7,5.4,12.4,12.4,12.4
		H96h0.7H120h0.7H144h0.7h11.6c7,0,12.4-5.4,12.4-12.4v-11.6h11.6c7,0,12.4-5.4,12.4-12.4v-11.6h11.6c7,0,12.4-5.4,12.4-12.4
		c0-7-5.4-12.4-12.4-12.4h-11.6v-23.3H216v11.6c0,7,5.4,12.4,12.4,12.4c7,0,12.4-5.4,12.4-12.4v-11.6V312v-11.6
		c0-7-5.4-12.4-12.4-12.4h-11.6H216z"/>
	<path class="st0" d="M492.4,288h-11.6H480h-11.6c-7,0-12.4,5.4-12.4,12.4c0,7,5.4,12.4,12.4,12.4H480h0.7h11.6
		c7,0,12.4-5.4,12.4-12.4C504.7,293.4,499.4,288,492.4,288z"/>
	<path class="st0" d="M96.7,324.4v-11.6V312v-11.6c0-7-5.4-12.4-12.4-12.4c-7,0-12.4,5.4-12.4,12.4V312v0.7v11.6
		c0,7,5.4,12.4,12.4,12.4C91.4,336.7,96.7,331.4,96.7,324.4z"/>
	<circle class="st0" cx="276.4" cy="324.4" r="12.4"/>
	<path class="st0" d="M624,336v0.7v11.6c0,7,5.4,12.4,12.4,12.4H648h0.7h11.6c7,0,12.4-5.4,12.4-12.4c0-7-5.4-12.4-12.4-12.4h-11.6
		v-11.6c0-7-5.4-12.4-12.4-12.4c-7,0-12.4,5.4-12.4,12.4V336z"/>
	<path class="st0" d="M816.7,312.7V312v-11.6c0-7-5.4-12.4-12.4-12.4h-11.6H792h-23.3H768h-11.6c-7,0-12.4,5.4-12.4,12.4V312v0.7
		v11.6c0,7,5.4,12.4,12.4,12.4H768h0.7H792h0.7h11.6c7,0,12.4-5.4,12.4-12.4V312.7z"/>
	<circle class="st0" cx="132.4" cy="348.4" r="12.4"/>
	<path class="st0" d="M444.4,360.7H456h0.7h11.6c7,0,12.4-5.4,12.4-12.4c0-7-5.4-12.4-12.4-12.4h-11.6H456h-11.6
		c-7,0-12.4,5.4-12.4,12.4C432,355.4,437.4,360.7,444.4,360.7z"/>
	<circle class="st0" cx="708.4" cy="348.4" r="12.4"/>
	<circle class="st0" cx="60.4" cy="372.4" r="12.4"/>
	<circle class="st0" cx="492.4" cy="372.4" r="12.4"/>
	<circle class="st0" cx="612.4" cy="372.4" r="12.4"/>
	<circle class="st0" cx="684.4" cy="372.4" r="12.4"/>
	<circle class="st0" cx="828.4" cy="372.4" r="12.4"/>
	<circle class="st0" cx="204.4" cy="396.4" r="12.4"/>
	<path class="st0" d="M252.4,384c-7,0-12.4,5.4-12.4,12.4c0,7,5.4,12.4,12.4,12.4H264h0.7H288v11.6c0,7,5.4,12.4,12.4,12.4H312V456
		v0.7v11.6c0,7,5.4,12.4,12.4,12.4H336h0.7h11.6c7,0,12.4-5.4,12.4-12.4c0-7-5.4-12.4-12.4-12.4h-11.6v-23.3V432v-11.6
		c0-7-5.4-12.4-12.4-12.4h-11.6v-11.6c0-7-5.4-12.4-12.4-12.4h-11.6H288h-23.3H264H252.4z"/>
	<circle class="st0" cx="348.4" cy="396.4" r="12.4"/>
	<path class="st0" d="M420.4,384c-7,0-12.4,5.4-12.4,12.4c0,7,5.4,12.4,12.4,12.4H432h0.7h11.6c7,0,12.4-5.4,12.4-12.4
		c0-7-5.4-12.4-12.4-12.4h-11.6H432H420.4z"/>
	<circle class="st0" cx="540.4" cy="396.4" r="12.4"/>
	<path class="st0" d="M180.4,408c-7,0-12.4,5.4-12.4,12.4V432v0.7v11.6c0,7,5.4,12.4,12.4,12.4H192h0.7h11.6c7,0,12.4-5.4,12.4-12.4
		c0-7-5.4-12.4-12.4-12.4h-11.6v-11.6C192.7,413.4,187.4,408,180.4,408z"/>
	<circle class="st0" cx="228.4" cy="420.4" r="12.4"/>
	<path class="st0" d="M564.4,432.7H576h0.7h11.6c7,0,12.4-5.4,12.4-12.4v-11.6V408v-11.6c0-7-5.4-12.4-12.4-12.4
		c-7,0-12.4,5.4-12.4,12.4V408h-11.6c-7,0-12.4,5.4-12.4,12.4C552,427.4,557.4,432.7,564.4,432.7z"/>
	<path class="st0" d="M792.7,408.7h11.6c7,0,12.4-5.4,12.4-12.4c0-7-5.4-12.4-12.4-12.4h-11.6v-11.6c0-7-5.4-12.4-12.4-12.4h-11.6
		H768h-23.3H744h-11.6c-7,0-12.4,5.4-12.4,12.4V384h-11.6c-7,0-12.4,5.4-12.4,12.4c0,7,5.4,12.4,12.4,12.4H720V432v0.7v11.6
		c0,7,5.4,12.4,12.4,12.4c7,0,12.4-5.4,12.4-12.4v-11.6H768h0.7h11.6c7,0,12.4-5.4,12.4-12.4V408.7z M744.7,408v-23.3H768V408H744.7
		z"/>
	<circle class="st0" cx="396.4" cy="444.4" r="12.4"/>
	<path class="st0" d="M468.4,432c-7,0-12.4,5.4-12.4,12.4V456v0.7v11.6c0,7,5.4,12.4,12.4,12.4c7,0,12.4-5.4,12.4-12.4v-11.6V456
		v-11.6C480.7,437.4,475.4,432,468.4,432z"/>
	<path class="st0" d="M660.4,456.7c7,0,12.4-5.4,12.4-12.4v-11.6V432v-23.3V408v-11.6c0-7-5.4-12.4-12.4-12.4
		c-7,0-12.4,5.4-12.4,12.4V408h-11.6c-7,0-12.4,5.4-12.4,12.4c0,7,5.4,12.4,12.4,12.4H648v11.6C648,451.4,653.4,456.7,660.4,456.7z"
		/>
	<path class="st0" d="M828.4,432h-11.6H816h-11.6c-7,0-12.4,5.4-12.4,12.4c0,7,5.4,12.4,12.4,12.4H816v11.6c0,7,5.4,12.4,12.4,12.4
		c7,0,12.4-5.4,12.4-12.4v-11.6V456v-11.6C840.7,437.4,835.4,432,828.4,432z"/>
	<path class="st0" d="M612.4,480.7H624h0.7h11.6c7,0,12.4-5.4,12.4-12.4c0-7-5.4-12.4-12.4-12.4h-11.6H624h-11.6
		c-7,0-12.4,5.4-12.4,12.4C600,475.4,605.4,480.7,612.4,480.7z"/>
	<circle class="st0" cx="684.4" cy="468.4" r="12.4"/>
	<circle class="st0" cx="300.4" cy="492.4" r="12.4"/>
	<path class="st0" d="M384,504v0.7V528h-23.3v-11.6c0-7-5.4-12.4-12.4-12.4h-11.6H336h-11.6c-7,0-12.4,5.4-12.4,12.4V528v0.7v11.6
		c0,7,5.4,12.4,12.4,12.4H336v11.6c0,7,5.4,12.4,12.4,12.4H360h0.7h11.6c7,0,12.4-5.4,12.4-12.4v-11.6h11.6c7,0,12.4-5.4,12.4-12.4
		v-11.6V528v-23.3V504v-11.6c0-7-5.4-12.4-12.4-12.4c-7,0-12.4,5.4-12.4,12.4V504z"/>
	<path class="st0" d="M564.4,528.7c7,0,12.4-5.4,12.4-12.4v-11.6h11.6c7,0,12.4-5.4,12.4-12.4c0-7-5.4-12.4-12.4-12.4h-11.6H576
		h-23.3v-11.6c0-7-5.4-12.4-12.4-12.4h-11.6v-23.3V432v-11.6c0-7-5.4-12.4-12.4-12.4c-7,0-12.4,5.4-12.4,12.4V432v0.7V456v0.7V480
		v0.7v11.6c0,7,5.4,12.4,12.4,12.4H528h0.7H552v11.6C552,523.4,557.4,528.7,564.4,528.7z"/>
	<path class="st0" d="M660.4,504h-11.6H648h-23.3H624h-11.6c-7,0-12.4,5.4-12.4,12.4c0,7,5.4,12.4,12.4,12.4H624v11.6
		c0,7,5.4,12.4,12.4,12.4c7,0,12.4-5.4,12.4-12.4v-11.6h11.6c7,0,12.4-5.4,12.4-12.4C672.7,509.4,667.4,504,660.4,504z"/>
	<path class="st0" d="M792.7,504.7h11.6c7,0,12.4-5.4,12.4-12.4c0-7-5.4-12.4-12.4-12.4h-11.6H792h-11.6c-7,0-12.4,5.4-12.4,12.4
		V504h-23.3v-11.6c0-7-5.4-12.4-12.4-12.4h-11.6H720h-11.6c-7,0-12.4,5.4-12.4,12.4V504v0.7v11.6c0,7,5.4,12.4,12.4,12.4H720v11.6
		c0,7,5.4,12.4,12.4,12.4H744v11.6c0,7,5.4,12.4,12.4,12.4c7,0,12.4-5.4,12.4-12.4v-11.6V552v-23.3h11.6c7,0,12.4-5.4,12.4-12.4
		V504.7z"/>
	<path class="st0" d="M828.4,504c-7,0-12.4,5.4-12.4,12.4V528h-11.6c-7,0-12.4,5.4-12.4,12.4c0,7,5.4,12.4,12.4,12.4H816v11.6
		c0,7,5.4,12.4,12.4,12.4c7,0,12.4-5.4,12.4-12.4v-11.6V552v-23.3V528v-11.6C840.7,509.4,835.4,504,828.4,504z"/>
	<circle class="st0" cx="588.4" cy="540.4" r="12.4"/>
	<circle class="st0" cx="156.4" cy="564.4" r="12.4"/>
	<path class="st0" d="M528.7,576.7H552h0.7h11.6c7,0,12.4-5.4,12.4-12.4c0-7-5.4-12.4-12.4-12.4h-11.6H552h-23.3v-11.6
		c0-7-5.4-12.4-12.4-12.4h-11.6v-11.6c0-7-5.4-12.4-12.4-12.4h-11.6H480h-11.6c-7,0-12.4,5.4-12.4,12.4V528h-11.6
		c-7,0-12.4,5.4-12.4,12.4c0,7,5.4,12.4,12.4,12.4H456V576v0.7v11.6c0,7,5.4,12.4,12.4,12.4c7,0,12.4-5.4,12.4-12.4v-11.6H504h0.7
		H528H528.7z"/>
	<circle class="st0" cx="660.4" cy="564.4" r="12.4"/>
	<path class="st0" d="M204.4,576c-7,0-12.4,5.4-12.4,12.4c0,7,5.4,12.4,12.4,12.4H216h0.7h11.6c7,0,12.4-5.4,12.4-12.4v-11.6V576
		v-23.3H264h0.7h11.6c7,0,12.4-5.4,12.4-12.4c0-7-5.4-12.4-12.4-12.4h-11.6v-23.3V504v-23.3V480v-23.3h11.6c7,0,12.4-5.4,12.4-12.4
		c0-7-5.4-12.4-12.4-12.4h-11.6H264h-11.6c-7,0-12.4,5.4-12.4,12.4V456v0.7V480h-23.3H216h-11.6c-7,0-12.4,5.4-12.4,12.4
		c0,7,5.4,12.4,12.4,12.4H216h0.7H240V528h-23.3H216h-11.6c-7,0-12.4,5.4-12.4,12.4c0,7,5.4,12.4,12.4,12.4H216V576H204.4z"/>
	<circle class="st0" cx="252.4" cy="612.4" r="12.4"/>
	<circle class="st0" cx="444.4" cy="612.4" r="12.4"/>
	<path class="st0" d="M60.4,648.7c7,0,12.4-5.4,12.4-12.4v-11.6V624v-23.3V600v-23.3H96v11.6c0,7,5.4,12.4,12.4,12.4H120V624h-11.6
		c-7,0-12.4,5.4-12.4,12.4c0,7,5.4,12.4,12.4,12.4H120h0.7h11.6c7,0,12.4-5.4,12.4-12.4v-11.6V624v-23.3V600v-11.6
		c0-7-5.4-12.4-12.4-12.4h-11.6v-23.3h11.6c7,0,12.4-5.4,12.4-12.4v-11.6h11.6c7,0,12.4-5.4,12.4-12.4c0-7-5.4-12.4-12.4-12.4h-11.6
		v-23.3h11.6c7,0,12.4-5.4,12.4-12.4c0-7-5.4-12.4-12.4-12.4h-11.6v-11.6c0-7-5.4-12.4-12.4-12.4h-11.6H120h-11.6
		c-7,0-12.4,5.4-12.4,12.4V456H72.7v-11.6c0-7-5.4-12.4-12.4-12.4c-7,0-12.4,5.4-12.4,12.4V456v0.7V480v0.7v11.6
		c0,7,5.4,12.4,12.4,12.4H72V528v0.7V552H60.4c-7,0-12.4,5.4-12.4,12.4V576v0.7V600v0.7V624v0.7v11.6
		C48,643.4,53.4,648.7,60.4,648.7z M96.7,504.7V504v-23.3H120V504v0.7V528H96.7V504.7z"/>
	<path class="st0" d="M228.4,624h-11.6H216h-11.6c-7,0-12.4,5.4-12.4,12.4c0,7,5.4,12.4,12.4,12.4H216h0.7h11.6
		c7,0,12.4-5.4,12.4-12.4C240.7,629.4,235.4,624,228.4,624z"/>
	<path class="st0" d="M804.4,648.7c7,0,12.4-5.4,12.4-12.4v-11.6V624v-23.3V600v-11.6c0-7-5.4-12.4-12.4-12.4h-11.6H792h-11.6
		c-7,0-12.4,5.4-12.4,12.4V600h-11.6c-7,0-12.4,5.4-12.4,12.4c0,7,5.4,12.4,12.4,12.4H768h0.7H792v11.6
		C792,643.4,797.4,648.7,804.4,648.7z"/>
	<circle class="st0" cx="252.4" cy="660.4" r="12.4"/>
	<path class="st0" d="M492.4,672.7H504h0.7h11.6c7,0,12.4-5.4,12.4-12.4v-11.6V648v-11.6c0-7-5.4-12.4-12.4-12.4h-11.6H504h-23.3
		H480h-11.6c-7,0-12.4,5.4-12.4,12.4c0,7,5.4,12.4,12.4,12.4H480v11.6C480,667.4,485.4,672.7,492.4,672.7z"/>
	<circle class="st0" cx="828.4" cy="660.4" r="12.4"/>
	<path class="st0" d="M432.7,672.7h11.6c7,0,12.4-5.4,12.4-12.4c0-7-5.4-12.4-12.4-12.4h-11.6H432h-23.3H408h-23.3v-23.3V624v-11.6
		c0-7-5.4-12.4-12.4-12.4h-11.6H360h-23.3v-11.6c0-7-5.4-12.4-12.4-12.4h-11.6v-11.6c0-7-5.4-12.4-12.4-12.4
		c-7,0-12.4,5.4-12.4,12.4V576v0.7V600v0.7V624h-11.6c-7,0-12.4,5.4-12.4,12.4c0,7,5.4,12.4,12.4,12.4H288h0.7h11.6
		c7,0,12.4-5.4,12.4-12.4v-11.6H336V648h-11.6c-7,0-12.4,5.4-12.4,12.4c0,7,5.4,12.4,12.4,12.4H336h0.7H360v11.6
		c0,7,5.4,12.4,12.4,12.4c7,0,12.4-5.4,12.4-12.4v-11.6H408v11.6c0,7,5.4,12.4,12.4,12.4c7,0,12.4-5.4,12.4-12.4V672.7z"/>
	<circle class="st0" cx="468.4" cy="684.4" r="12.4"/>
	<circle class="st0" cx="684.4" cy="684.4" r="12.4"/>
	<path class="st0" d="M828.4,696h-11.6v-11.6c0-7-5.4-12.4-12.4-12.4c-7,0-12.4,5.4-12.4,12.4V696h-23.3H768h-23.3v-23.3h11.6
		c7,0,12.4-5.4,12.4-12.4c0-7-5.4-12.4-12.4-12.4h-11.6v-11.6c0-7-5.4-12.4-12.4-12.4h-11.6H720h-23.3H696h-23.3H672h-23.3H648
		h-23.3v-23.3h11.6c7,0,12.4-5.4,12.4-12.4c0-7-5.4-12.4-12.4-12.4h-11.6H624h-11.6c-7,0-12.4,5.4-12.4,12.4V600h-23.3H576h-23.3
		H552h-11.6c-7,0-12.4,5.4-12.4,12.4c0,7,5.4,12.4,12.4,12.4H552h0.7H576h0.7H600v11.6c0,7,5.4,12.4,12.4,12.4H624V672h-11.6
		c-7,0-12.4,5.4-12.4,12.4V696h-23.3v-23.3V672v-11.6c0-7-5.4-12.4-12.4-12.4c-7,0-12.4,5.4-12.4,12.4V672h-11.6
		c-7,0-12.4,5.4-12.4,12.4V696h-11.6c-7,0-12.4,5.4-12.4,12.4c0,7,5.4,12.4,12.4,12.4H528h0.7H552v11.6c0,7,5.4,12.4,12.4,12.4
		c7,0,12.4-5.4,12.4-12.4v-11.6H600h0.7H624V744v0.7v11.6c0,7,5.4,12.4,12.4,12.4H648v11.6c0,7,5.4,12.4,12.4,12.4H672h0.7h11.6
		c7,0,12.4-5.4,12.4-12.4c0-7-5.4-12.4-12.4-12.4h-11.6v-23.3H696h0.7H720v11.6c0,7,5.4,12.4,12.4,12.4H744v11.6
		c0,7,5.4,12.4,12.4,12.4H768V816v0.7v11.6c0,7,5.4,12.4,12.4,12.4H792h0.7h11.6c7,0,12.4-5.4,12.4-12.4c0-7-5.4-12.4-12.4-12.4
		h-11.6v-23.3V792v-23.3h11.6c7,0,12.4-5.4,12.4-12.4v-11.6h11.6c7,0,12.4-5.4,12.4-12.4v-11.6V720v-11.6
		C840.7,701.4,835.4,696,828.4,696z M792,720.7V744h-23.3v-23.3H792z M696.7,720H696h-23.3H672h-23.3v-23.3V696v-23.3V672v-23.3H672
		h0.7H696h0.7H720V672v0.7V696v0.7V720H696.7z"/>
	<circle class="st0" cx="420.4" cy="732.4" r="12.4"/>
	<circle class="st0" cx="588.4" cy="756.4" r="12.4"/>
	<path class="st0" d="M336,780.4c0,7,5.4,12.4,12.4,12.4c7,0,12.4-5.4,12.4-12.4v-11.6H384h0.7h11.6c7,0,12.4-5.4,12.4-12.4
		c0-7-5.4-12.4-12.4-12.4h-11.6v-11.6c0-7-5.4-12.4-12.4-12.4c-7,0-12.4,5.4-12.4,12.4V744h-23.3H336h-23.3v-23.3H336h0.7h11.6
		c7,0,12.4-5.4,12.4-12.4c0-7-5.4-12.4-12.4-12.4h-11.6H336h-23.3v-11.6c0-7-5.4-12.4-12.4-12.4h-11.6H288h-11.6
		c-7,0-12.4,5.4-12.4,12.4V696v0.7V720h-11.6c-7,0-12.4,5.4-12.4,12.4V744v0.7V768v0.7v11.6c0,7,5.4,12.4,12.4,12.4H264h0.7H288V816
		h-11.6c-7,0-12.4,5.4-12.4,12.4c0,7,5.4,12.4,12.4,12.4H288h0.7h11.6c7,0,12.4-5.4,12.4-12.4v-11.6V816v-23.3V792v-23.3H336V780.4z
		"/>
	<path class="st0" d="M444.4,768h-11.6H432h-11.6c-7,0-12.4,5.4-12.4,12.4c0,7,5.4,12.4,12.4,12.4H432h0.7h11.6
		c7,0,12.4-5.4,12.4-12.4C456.7,773.4,451.4,768,444.4,768z"/>
	<path class="st0" d="M552.7,768.7V768v-11.6c0-7-5.4-12.4-12.4-12.4h-11.6H528h-23.3H504h-11.6c-7,0-12.4,5.4-12.4,12.4
		c0,7,5.4,12.4,12.4,12.4H504h0.7H528v11.6c0,7,5.4,12.4,12.4,12.4c7,0,12.4-5.4,12.4-12.4V768.7z"/>
	<path class="st0" d="M516.4,792h-11.6H504h-11.6c-7,0-12.4,5.4-12.4,12.4V816v0.7v11.6c0,7,5.4,12.4,12.4,12.4H504h0.7h11.6
		c7,0,12.4-5.4,12.4-12.4v-11.6V816v-11.6C528.7,797.4,523.4,792,516.4,792z"/>
	<circle class="st0" cx="708.4" cy="804.4" r="12.4"/>
	<path class="st0" d="M420.4,816h-11.6v-11.6c0-7-5.4-12.4-12.4-12.4h-11.6H384h-11.6c-7,0-12.4,5.4-12.4,12.4V816h-11.6
		c-7,0-12.4,5.4-12.4,12.4c0,7,5.4,12.4,12.4,12.4H360h0.7H384h0.7H408h0.7h11.6c7,0,12.4-5.4,12.4-12.4
		C432.7,821.4,427.4,816,420.4,816z"/>
	<path class="st0" d="M660.4,816h-11.6H648h-23.3H624h-23.3v-11.6c0-7-5.4-12.4-12.4-12.4h-11.6H576h-11.6c-7,0-12.4,5.4-12.4,12.4
		c0,7,5.4,12.4,12.4,12.4H576v11.6c0,7,5.4,12.4,12.4,12.4H600h0.7H624h0.7H648h0.7h11.6c7,0,12.4-5.4,12.4-12.4
		C672.7,821.4,667.4,816,660.4,816z"/>
	<path class="st0" d="M216,48H48v168h168V48z M192,192H72V72h120V192z"/>
	<path class="st0" d="M840,48H672v168h168V48z M816,192H696V72h120V192z"/>
	<path class="st0" d="M48,840h168V672H48V840z M72,696h120v120H72V696z"/>
	<rect x="96" y="96" class="st0" width="72" height="72"/>
	<rect x="720" y="96" class="st0" width="72" height="72"/>
	<rect x="96" y="720" class="st0" width="72" height="72"/>
</g>
</svg>
